mtllib materials.mtl
v -0.004833966 0.1112364 -0.0304051
v -0.04393926 0.103426 -0.02633977
v -0.03959134 0.09833768 -0.04564655
v -0.03773087 0.1088096 -0.007630944
v -0.02262963 0.113046 0.005466819
v -0.002681956 0.115 0.009444118
v 0.01676719 0.1141481 0.003235161
v 0.03050646 0.1107184 -0.01149631
v 0.0348544 0.1056301 -0.03080308
v 0.02864599 0.1002465 -0.04951191
v 0.01354475 0.09601014 -0.06260973
v -0.006402925 0.09405614 -0.06658703
v -0.0258521 0.09490807 -0.06037802
v -0.07774487 0.08314086 -0.01909751
v -0.06957343 0.07357796 -0.05538237
v -0.06607687 0.09325875 0.01606351
v -0.03769584 0.1012205 0.0406794
v -0.0002064705 0.1048929 0.04815423
v 0.03634599 0.1032917 0.03648525
v 0.06216736 0.09684618 0.008799076
v 0.07033882 0.08728328 -0.02748579
v 0.05867079 0.0771654 -0.06264681
v 0.03028978 0.06920362 -0.08726269
v -0.007199571 0.06553128 -0.09473753
v -0.04375207 0.06713241 -0.08306855
v -0.1021733 0.05282769 -0.009551764
v -0.0911639 0.03994363 -0.05843824
v -0.08645302 0.06645948 0.03782058
v -0.04821536 0.07718636 0.07098538
v 0.002293929 0.08213408 0.08105624
v 0.05154093 0.07997689 0.06533462
v 0.08632997 0.07129282 0.02803314
v 0.09733933 0.05840875 -0.02085334
v 0.08161905 0.04477696 -0.06822562
v 0.04338142 0.03405009 -0.1013905
v -0.007127851 0.02910237 -0.1114613
v -0.05637491 0.03125956 -0.09573972
v -0.1142781 0.01614274 0.001146019
v -0.1017587 0.001491517 -0.05444562
v -0.09640166 0.03164424 0.05501586
v -0.05291942 0.0438424 0.09272951
v 0.004517645 0.04946873 0.1041817
v 0.06051928 0.04701567 0.08630371
v 0.1000799 0.03714051 0.04388601
v 0.1125993 0.02248928 -0.01170564
v 0.09472286 0.006987788 -0.06557542
v 0.05124062 -0.00521037 -0.1032891
v -0.006196424 -0.01083671 -0.1147413
v -0.0621981 -0.008383639 -0.09686327
v -0.1125993 -0.02248926 0.01170558
v -0.1000799 -0.03714049 -0.04388601
v -0.09472284 -0.006987765 0.06557542
v -0.05124059 0.005210392 0.1032891
v 0.006196469 0.01083673 0.1147413
v 0.0621981 0.008383669 0.09686327
v 0.1017587 -0.001491494 0.05444562
v 0.1142781 -0.01614272 -0.001146019
v 0.09640168 -0.03164421 -0.05501586
v 0.05291943 -0.04384236 -0.09272951
v -0.0045176 -0.04946871 -0.1041816
v -0.06051925 -0.04701564 -0.08630371
v -0.0973393 -0.05840874 0.02085328
v -0.08632991 -0.0712928 -0.02803314
v -0.08161902 -0.04477696 0.06822562
v -0.04338139 -0.03405007 0.1013905
v 0.007127911 -0.02910236 0.1114613
v 0.05637491 -0.03125954 0.09573972
v 0.09116394 -0.03994362 0.05843824
v 0.1021733 -0.05282769 0.009551764
v 0.08645304 -0.06645946 -0.03782058
v 0.04821539 -0.07718635 -0.07098538
v -0.00229387 -0.08213405 -0.08105624
v -0.05154091 -0.07997687 -0.06533462
v -0.07033879 -0.08728325 0.02748579
v -0.06216732 -0.09684615 -0.008799076
v -0.05867079 -0.07716537 0.06264681
v -0.03028975 -0.06920359 0.08726269
v 0.007199615 -0.06553125 0.09473753
v 0.04375209 -0.06713237 0.08306855
v 0.06957345 -0.07357793 0.05538237
v 0.0777449 -0.08314084 0.01909751
v 0.06607689 -0.09325872 -0.01606351
v 0.03769587 -0.1012205 -0.0406794
v 0.0002065152 -0.1048928 -0.04815423
v -0.03634599 -0.1032917 -0.03648525
v -0.03485435 -0.1056301 0.03080308
v -0.03050642 -0.1107184 0.01149637
v -0.02864593 -0.1002465 0.04951191
v -0.01354472 -0.09601013 0.06260973
v 0.006402954 -0.09405614 0.06658697
v 0.0258521 -0.09490807 0.06037802
v 0.03959137 -0.0983377 0.04564655
v 0.04393929 -0.103426 0.02633977
v 0.03773089 -0.1088096 0.007631004
v 0.02262966 -0.113046 -0.005466819
v 0.002682 -0.115 -0.009444118
v -0.01676716 -0.1141481 -0.003235161
v 0.004833996 -0.1112364 0.0304051
vn -0.0418823 0.9637679 -0.2634339
vn -0.0418823 0.9637679 -0.2634339
vn -0.0418823 0.9637679 -0.2634339
vn -0.0418823 0.9637679 -0.2634339
vn -0.0418823 0.9637679 -0.2634339
vn -0.0418823 0.9637679 -0.2634339
vn -0.0418823 0.9637679 -0.2634339
vn -0.0418823 0.9637679 -0.2634339
vn -0.0418823 0.9637679 -0.2634339
vn -0.0418823 0.9637679 -0.2634339
vn -0.0418823 0.9637679 -0.2634339
vn -0.0418823 0.9637679 -0.2634339
vn -0.343025 0.8520113 -0.395488
vn -0.3806962 0.8960971 -0.2282115
vn -0.3269056 0.9427415 -0.06611585
vn -0.1960665 0.979446 0.04736546
vn -0.02323703 0.9963758 0.08182525
vn 0.1452732 0.9889945 0.02803007
vn 0.2643121 0.9592798 -0.09960577
vn 0.3019832 0.915194 -0.2668823
vn 0.2481926 0.8685496 -0.4289779
vn 0.1173535 0.8318451 -0.5424592
vn -0.05547589 0.8149154 -0.576919
vn -0.2239863 0.8222967 -0.5231237
vn -0.6027939 0.6374894 -0.4798404
vn -0.6735924 0.7203438 -0.1654634
vn -0.5724992 0.8080065 0.1391767
vn -0.3266021 0.8769885 0.3524518
vn -0.001789044 0.9088061 0.417215
vn 0.3149066 0.8949337 0.3161131
vn 0.5386265 0.8390886 0.07623624
vn 0.609425 0.7562342 -0.2381409
vn 0.5083318 0.6685715 -0.5427808
vn 0.2624347 0.5995895 -0.7560558
vn -0.06237828 0.567772 -0.8208191
vn -0.3790742 0.5816443 -0.7197171
vn -0.7898569 0.346077 -0.506317
vn -0.8852435 0.4577063 -0.08275798
vn -0.749041 0.575814 0.3276825
vn -0.4177447 0.6687532 0.6150272
vn 0.0198748 0.7116209 0.7022825
vn 0.4465575 0.6929308 0.5660684
vn 0.7479746 0.6176907 0.2428831
vn 0.8433612 0.5060614 -0.180676
vn 0.7071587 0.3879537 -0.5911164
vn 0.3758624 0.2950145 -0.8784611
vn -0.06175691 0.2521469 -0.9657164
vn -0.4884401 0.270837 -0.829502
vn -0.8816515 0.01292258 -0.4717242
vn -0.9901211 0.1398628 0.009929242
vn -0.8352374 0.2741699 0.476665
vn -0.4585012 0.3798564 0.8034213
vn 0.03914135 0.4286038 0.9026443
vn 0.5243471 0.4073501 0.7477473
vn 0.8671059 0.3217903 0.3802346
vn 0.9755756 0.1948501 -0.101419
vn 0.8206918 0.06054302 -0.5681546
vn 0.4439556 -0.04514349 -0.8949109
vn -0.05368675 -0.09389083 -0.9941339
vn -0.538893 -0.07263716 -0.8392367
vn -0.8671059 -0.3217905 -0.3802346
vn -0.9755756 -0.1948503 0.1014188
vn -0.8206918 -0.06054313 0.5681545
vn -0.4439556 0.0451434 0.8949109
vn 0.05368691 0.09389076 0.9941339
vn 0.5388927 0.0726371 0.8392369
vn 0.8816515 -0.01292269 0.4717242
vn 0.9901211 -0.1398629 -0.00992942
vn 0.8352373 -0.27417 -0.476665
vn 0.4585012 -0.3798565 -0.8034213
vn -0.03914118 -0.4286039 -0.9026443
vn -0.5243474 -0.4073502 -0.7477471
vn -0.7479746 -0.6176909 -0.2428831
vn -0.8433611 -0.5060615 0.1806759
vn -0.7071586 -0.3879538 0.5911163
vn -0.3758624 -0.2950146 0.8784611
vn 0.06175705 -0.252147 0.9657164
vn 0.4884398 -0.2708371 0.8295022
vn 0.7898569 -0.3460771 0.5063169
vn 0.8852434 -0.4577065 0.08275785
vn 0.749041 -0.5758142 -0.3276825
vn 0.4177448 -0.6687533 -0.6150272
vn -0.01987464 -0.711621 -0.7022824
vn -0.4465578 -0.6929308 -0.5660681
vn -0.5386264 -0.8390886 -0.07623629
vn -0.609425 -0.7562342 0.2381407
vn -0.5083318 -0.6685715 0.5427808
vn -0.2624347 -0.5995895 0.7560559
vn 0.06237837 -0.567772 0.8208191
vn 0.379074 -0.5816443 0.7197173
vn 0.6027939 -0.6374894 0.4798403
vn 0.6735924 -0.7203439 0.1654633
vn 0.5724992 -0.8080065 -0.1391767
vn 0.3266021 -0.8769885 -0.3524518
vn 0.001789124 -0.9088061 -0.417215
vn -0.3149067 -0.8949337 -0.3161131
vn -0.2643119 -0.9592799 0.09960583
vn -0.301983 -0.915194 0.2668822
vn -0.2481925 -0.8685497 0.4289778
vn -0.1173534 -0.8318452 0.542459
vn 0.05547594 -0.8149154 0.5769188
vn 0.2239861 -0.8222967 0.5231237
vn 0.3430249 -0.8520113 0.3954879
vn 0.380696 -0.8960972 0.2282114
vn 0.3269054 -0.9427415 0.06611593
vn 0.1960664 -0.9794461 -0.04736529
vn 0.0232371 -0.9963758 -0.08182508
vn -0.1452732 -0.9889945 -0.02802987
vt -0.07728813 -0.03899627
vt -0.07666806 -0.0428948
vt -0.07480186 -0.04206247
vt -0.07728813 -0.03899627
vt -0.0787004 -0.04268254
vt -0.07666806 -0.0428948
vt -0.07728813 -0.03899627
vt -0.08035432 -0.04148253
vt -0.0787004 -0.04268254
vt -0.07728813 -0.03899627
vt -0.08118666 -0.03961634
vt -0.08035432 -0.04148253
vt -0.07728813 -0.03899627
vt -0.08097439 -0.037584
vt -0.08118666 -0.03961634
vt -0.07728813 -0.03899627
vt -0.07977439 -0.03593007
vt -0.08097439 -0.037584
vt -0.07728813 -0.03899627
vt -0.0779082 -0.03509774
vt -0.07977439 -0.03593007
vt -0.07728813 -0.03899627
vt -0.07587586 -0.03531
vt -0.0779082 -0.03509774
vt -0.07728813 -0.03899627
vt -0.07422192 -0.03651001
vt -0.07587586 -0.03531
vt -0.07728813 -0.03899627
vt -0.07338959 -0.0383762
vt -0.07422192 -0.03651001
vt -0.07728813 -0.03899627
vt -0.07360186 -0.04040854
vt -0.07338959 -0.0383762
vt -0.07728813 -0.03899627
vt -0.07480186 -0.04206247
vt -0.07360186 -0.04040854
vt -0.07323409 -0.04286298
vt -0.07513791 -0.04358285
vt -0.07455663 -0.04745563
vt -0.07097861 -0.04610272
vt -0.07663915 -0.0466684
vt -0.07866327 -0.04645472
vt -0.07988661 -0.0501749
vt -0.0760825 -0.0505765
vt -0.07791764 -0.04830579
vt -0.07962638 -0.04719992
vt -0.08239971 -0.04996488
vt -0.07918831 -0.05204322
vt -0.07704722 -0.05020782
vt -0.07808 -0.04845394
vt -0.08179778 -0.04968458
vt -0.07985678 -0.0529808
vt -0.07556226 -0.05240777
vt -0.07570232 -0.05037723
vt -0.07957815 -0.04981659
vt -0.07931492 -0.05363278
vt -0.07528101 -0.05200386
vt -0.07445513 -0.05014358
vt -0.07761872 -0.04783532
vt -0.07917087 -0.05133152
vt -0.07685922 -0.04501898
vt -0.07518132 -0.04386686
vt -0.07666723 -0.04024355
vt -0.07982068 -0.04240883
vt -0.07782547 -0.03070193
vt -0.07579181 -0.03078551
vt -0.07480931 -0.02699461
vt -0.07863133 -0.02683752
vt -0.07438252 -0.01777643
vt -0.07284906 -0.0191148
vt -0.06970958 -0.01677388
vt -0.07259154 -0.01425856
vt -0.06938244 -0.0163831
vt -0.06888657 -0.01835715
vt -0.06497262 -0.01822566
vt -0.06590454 -0.01451567
vt -0.06756803 -0.02452271
vt -0.06811912 -0.02648206
vt -0.06465767 -0.02831367
vt -0.06362199 -0.02463129
vt -0.06943691 -0.03503515
vt -0.07082032 -0.03652809
vt -0.06857388 -0.03973586
vt -0.06597389 -0.03693004
vt -0.06658505 -0.05250538
vt -0.07007866 -0.05396641
vt -0.06906778 -0.0577351
vt -0.06436084 -0.05576666
vt -0.07585099 -0.05154862
vt -0.07963128 -0.05132655
vt -0.08037858 -0.05515624
vt -0.07528541 -0.05545544
vt -0.07745571 -0.04641871
vt -0.08071794 -0.04449572
vt -0.08313078 -0.04756217
vt -0.07873561 -0.05015301
vt -0.07190129 -0.04848479
vt -0.07405352 -0.04536904
vt -0.07753152 -0.04713778
vt -0.07463183 -0.05133561
vt -0.06475299 -0.05839429
vt -0.06559452 -0.05470217
vt -0.06948061 -0.05505313
vt -0.06834683 -0.06002751
vt -0.06071077 -0.06771246
vt -0.06016644 -0.06396498
vt -0.06391826 -0.06289314
vt -0.06465162 -0.06794211
vt -0.06431068 -0.0646408
vt -0.06216379 -0.06152137
vt -0.06505359 -0.05889954
vt -0.06794609 -0.06310232
vt -0.07731916 -0.02864427
vt -0.07357445 -0.02808119
vt -0.07363382 -0.02417973
vt -0.07867905 -0.02493836
vt -0.06252322 0.01814244
vt -0.06031674 0.01506488
vt -0.05687026 0.01689427
vt -0.05984304 0.02104066
vt -0.04757491 0.009313905
vt -0.04760038 0.005527182
vt -0.04373705 0.004979768
vt -0.04370274 0.01008161
vt -0.04772628 -0.01689227
vt -0.04923634 -0.02036498
vt -0.04589811 -0.02238515
vt -0.0438636 -0.0177064
vt -0.05545016 -0.04046595
vt -0.05810114 -0.04317007
vt -0.05570483 -0.04624946
vt -0.05213318 -0.04260621
vt -0.05673543 -0.06518991
vt -0.06112279 -0.06767526
vt -0.05933999 -0.07116208
vt -0.05435086 -0.06833584
vt -0.07469012 -0.05314994
vt -0.07972978 -0.05331644
vt -0.07976791 -0.05723242
vt -0.07403702 -0.05704308
vt -0.07574432 -0.03350548
vt -0.08015006 -0.03105285
vt -0.08219942 -0.03438998
vt -0.0771894 -0.037179
vt -0.06235992 -0.03512871
vt -0.06536984 -0.03108319
vt -0.06860884 -0.03328438
vt -0.06518608 -0.03788478
vt -0.04792436 -0.05510504
vt -0.04966446 -0.05037239
vt -0.05339446 -0.05156546
vt -0.0514157 -0.05694723
vt -0.03646925 -0.07686855
vt -0.03718296 -0.07187691
vt -0.04107985 -0.07226497
vt -0.04026824 -0.07794126
vt -0.02868445 -0.08737384
vt -0.02844575 -0.08233707
vt -0.03234602 -0.08198463
vt -0.03261745 -0.08771223
vt -0.03858308 -0.07414448
vt -0.03639669 -0.06960073
vt -0.03984975 -0.06775337
vt -0.04233601 -0.07292033
vt -0.00909993 0.05773671
vt -0.009428589 0.05270503
vt -0.005535241 0.05228294
vt -0.005161503 0.05800477
vt -0.01223618 0.02064572
vt -0.01370732 0.01582268
vt -0.01001381 0.01452104
vt -0.00834089 0.02000559
vt -0.02258752 -0.01978077
vt -0.02494424 -0.02423856
vt -0.02156355 -0.02621523
vt -0.01888358 -0.02114603
vt -0.03735524 -0.05209629
vt -0.0406815 -0.05588599
vt -0.03785139 -0.05859279
vt -0.03406889 -0.0542833
vt -0.04098275 -0.0789014
vt -0.04521341 -0.08270542
vt -0.04244044 -0.08551499
vt -0.03820977 -0.08171096
vt -0.07233948 -0.05291981
vt -0.07793467 -0.05395083
vt -0.07703964 -0.05779556
vt -0.07144444 -0.05676454
vt -0.07101961 -0.009144746
vt -0.07590001 -0.006220559
vt -0.07776935 -0.009697426
vt -0.07288896 -0.01262161
vt -0.04691652 -0.01358447
vt -0.05022841 -0.008958394
vt -0.0533279 -0.01140302
vt -0.05001602 -0.0160291
vt -0.02705482 -0.04447031
vt -0.0295114 -0.03933861
vt -0.03298892 -0.04120674
vt -0.03053234 -0.04633844
vt -0.009408935 -0.07529946
vt -0.01159736 -0.07004779
vt -0.01516667 -0.07173394
vt -0.01297825 -0.07698559
vt 0.01357292 -0.09006177
vt 0.01093186 -0.08502252
vt 0.007524373 -0.08701553
vt 0.01016543 -0.09205478
vt 0.06340553 -0.05876599
vt 0.05838209 -0.05609501
vt 0.05669286 -0.05966286
vt 0.06171631 -0.06233383
vt 0.05424272 0.02872632
vt 0.05012958 0.02479551
vt 0.05298663 0.02207149
vt 0.05709977 0.02600229
vt 0.02247171 0.009221898
vt 0.01966546 0.004272742
vt 0.02318618 0.002487358
vt 0.02599242 0.007436513
vt 0.003181976 -0.03080874
vt 0.000476277 -0.03581357
vt 0.004032345 -0.03752746
vt 0.006738043 -0.03252263
vt -0.01568718 -0.06539553
vt -0.01885686 -0.07012017
vt -0.01548003 -0.0721647
vt -0.01231035 -0.06744005
vt -0.0135729 -0.09006178
vt -0.01621396 -0.09510102
vt -0.01248792 -0.09648623
vt -0.01016541 -0.09205478
vt -0.0634055 -0.05876603
vt -0.06842895 -0.061437
vt -0.06613381 -0.06468269
vt -0.06171627 -0.06233387
vt -0.05424272 0.02872632
vt -0.05835586 0.03265712
vt -0.06071681 0.02945898
vt -0.05709977 0.02600229
vt -0.02247169 0.009221896
vt -0.02527795 0.01417105
vt -0.02846019 0.01178873
vt -0.02599241 0.007436511
vt -0.003181965 -0.03080874
vt -0.005887661 -0.0258039
vt -0.009117382 -0.02812146
vt -0.006738033 -0.03252264
vt 0.01568717 -0.06539552
vt 0.01251749 -0.06067087
vt 0.009522965 -0.06328525
vt 0.01231034 -0.06744003
vt 0.04098276 -0.0789014
vt 0.0367521 -0.07509737
vt 0.0344894 -0.07836575
vt 0.03820978 -0.08171096
vt 0.07233948 -0.05291979
vt 0.06674429 -0.05188878
vt 0.06652413 -0.05585787
vt 0.07144445 -0.05676452
vt 0.0710196 -0.009144755
vt 0.06613921 -0.01206894
vt 0.0685972 -0.01519311
vt 0.07288895 -0.01262162
vt 0.04691653 -0.01358448
vt 0.04360465 -0.01821056
vt 0.04710361 -0.02009721
vt 0.05001603 -0.01602911
vt 0.02705483 -0.0444703
vt 0.02459824 -0.049602
vt 0.02837207 -0.05085117
vt 0.03053235 -0.04633843
vt 0.009408929 -0.07529946
vt 0.007220504 -0.08055113
vt 0.01105377 -0.08160384
vt 0.01297824 -0.07698561
vt 0.02868446 -0.08737384
vt 0.02892315 -0.09241059
vt 0.03279463 -0.09145065
vt 0.03261746 -0.08771222
vt 0.03858308 -0.07414448
vt 0.04076947 -0.07868823
vt 0.04395881 -0.07629283
vt 0.04233602 -0.07292034
vt 0.009099965 0.05773671
vt 0.008771309 0.06276841
vt 0.004917601 0.06173943
vt 0.00516154 0.05800477
vt 0.01223619 0.02064572
vt 0.01076505 0.02546875
vt 0.00724898 0.02358538
vt 0.008340902 0.02000559
vt 0.02258753 -0.01978078
vt 0.02023081 -0.01532301
vt 0.01713437 -0.01783735
vt 0.0188836 -0.02114603
vt 0.03735523 -0.05209627
vt 0.03402896 -0.04830656
vt 0.03160004 -0.05147045
vt 0.03406889 -0.05428327
vt 0.05673543 -0.06518991
vt 0.05234807 -0.06270455
vt 0.05109445 -0.06649114
vt 0.05435088 -0.06833585
vt 0.07469012 -0.05314993
vt 0.06965046 -0.05298343
vt 0.07029645 -0.05691949
vt 0.07403703 -0.05704307
vt 0.07574432 -0.03350548
vt 0.07133858 -0.0359581
vt 0.07391933 -0.03899942
vt 0.07718939 -0.03717901
vt 0.06235992 -0.03512872
vt 0.05935 -0.03917424
vt 0.06295203 -0.04088748
vt 0.06518608 -0.03788478
vt 0.04792437 -0.05510504
vt 0.04618428 -0.05983769
vt 0.05012415 -0.06045993
vt 0.0514157 -0.05694723
vt 0.03646925 -0.07686857
vt 0.03575554 -0.08186021
vt 0.0397385 -0.08164621
vt 0.04026824 -0.07794128
vt 0.06431068 -0.0646408
vt 0.06645758 -0.06776021
vt 0.06908844 -0.06476213
vt 0.0679461 -0.06310233
vt 0.07731915 -0.0286443
vt 0.08106386 -0.02920738
vt 0.08067157 -0.025238
vt 0.07867905 -0.02493839
vt 0.06252322 0.01814244
vt 0.0647297 0.02122
vt 0.06101708 0.0226782
vt 0.05984303 0.02104066
vt 0.04757491 0.009313906
vt 0.04754944 0.01310063
vt 0.04368918 0.01209648
vt 0.04370274 0.01008161
vt 0.04772628 -0.01689228
vt 0.04621622 -0.01341958
vt 0.04306011 -0.01585862
vt 0.0438636 -0.0177064
vt 0.05545016 -0.04046593
vt 0.05279918 -0.03776181
vt 0.05072262 -0.04116736
vt 0.05213318 -0.0426062
vt 0.06658506 -0.05250538
vt 0.06309144 -0.05104435
vt 0.06250194 -0.05498927
vt 0.06436084 -0.05576666
vt 0.07585101 -0.05154862
vt 0.07207071 -0.0517707
vt 0.07327396 -0.0555736
vt 0.07528541 -0.05545544
vt 0.07745571 -0.04641872
vt 0.0741935 -0.0483417
vt 0.07699983 -0.0511762
vt 0.07873561 -0.05015301
vt 0.07190129 -0.04848478
vt 0.06974907 -0.05160053
vt 0.07348666 -0.05299347
vt 0.07463183 -0.05133561
vt 0.064753 -0.05839429
vt 0.06391146 -0.06208642
vt 0.06789906 -0.06199204
vt 0.06834684 -0.06002751
vt 0.06071076 -0.06771246
vt 0.06125508 -0.07145994
vt 0.06494124 -0.06993611
vt 0.06465162 -0.06794211
vt 0.07685922 -0.04501898
vt 0.07853713 -0.0461711
vt 0.07982067 -0.04240883
vt 0.07782547 -0.03070194
vt 0.07985913 -0.03061836
vt 0.07863133 -0.02683754
vt 0.07438253 -0.01777644
vt 0.07591598 -0.01643807
vt 0.07259154 -0.01425857
vt 0.06938244 -0.01638312
vt 0.06987831 -0.01440907
vt 0.06590455 -0.01451568
vt 0.06756804 -0.02452272
vt 0.06701696 -0.02256337
vt 0.063622 -0.0246313
vt 0.06943691 -0.03503514
vt 0.06805349 -0.03354219
vt 0.0659739 -0.03693003
vt 0.0732341 -0.04286297
vt 0.07133027 -0.0421431
vt 0.07097862 -0.04610271
vt 0.07663915 -0.0466684
vt 0.07461502 -0.04688209
vt 0.07608251 -0.05057649
vt 0.07791764 -0.04830578
vt 0.07620889 -0.04941165
vt 0.07918832 -0.05204322
vt 0.07704722 -0.05020782
vt 0.07601444 -0.0519617
vt 0.07985678 -0.0529808
vt 0.07556227 -0.05240777
vt 0.07542221 -0.05443832
vt 0.07931492 -0.05363278
vt 0.07528102 -0.05200385
vt 0.07610691 -0.05386414
vt 0.07917088 -0.05133151
o group1948876968
g mesh1948876968
usemtl mat8
f 3/3/1 2/2/1 1/1/1
f 2/6/2 4/5/2 1/4/2
f 4/9/3 5/8/3 1/7/3
f 5/12/4 6/11/4 1/10/4
f 6/15/5 7/14/5 1/13/5
f 7/18/6 8/17/6 1/16/6
f 8/21/7 9/20/7 1/19/7
f 9/24/8 10/23/8 1/22/8
f 10/27/9 11/26/9 1/25/9
f 11/30/10 12/29/10 1/28/10
f 12/33/11 13/32/11 1/31/11
f 13/36/12 3/35/12 1/34/12
f 15/40/13 14/39/13 2/38/13 3/37/13
f 14/44/14 16/43/14 4/42/14 2/41/14
f 16/48/15 17/47/15 5/46/15 4/45/15
f 17/52/16 18/51/16 6/50/16 5/49/16
f 18/56/17 19/55/17 7/54/17 6/53/17
f 19/60/18 20/59/18 8/58/18 7/57/18
f 20/64/19 21/63/19 9/62/19 8/61/19
f 21/68/20 22/67/20 10/66/20 9/65/20
f 22/72/21 23/71/21 11/70/21 10/69/21
f 23/76/22 24/75/22 12/74/22 11/73/22
f 24/80/23 25/79/23 13/78/23 12/77/23
f 25/84/24 15/83/24 3/82/24 13/81/24
f 27/88/25 26/87/25 14/86/25 15/85/25
f 26/92/26 28/91/26 16/90/26 14/89/26
f 28/96/27 29/95/27 17/94/27 16/93/27
f 29/100/28 30/99/28 18/98/28 17/97/28
f 30/104/29 31/103/29 19/102/29 18/101/29
f 31/108/30 32/107/30 20/106/30 19/105/30
f 32/112/31 33/111/31 21/110/31 20/109/31
f 33/116/32 34/115/32 22/114/32 21/113/32
f 34/120/33 35/119/33 23/118/33 22/117/33
f 35/124/34 36/123/34 24/122/34 23/121/34
f 36/128/35 37/127/35 25/126/35 24/125/35
f 37/132/36 27/131/36 15/130/36 25/129/36
f 39/136/37 38/135/37 26/134/37 27/133/37
f 38/140/38 40/139/38 28/138/38 26/137/38
f 40/144/39 41/143/39 29/142/39 28/141/39
f 41/148/40 42/147/40 30/146/40 29/145/40
f 42/152/41 43/151/41 31/150/41 30/149/41
f 43/156/42 44/155/42 32/154/42 31/153/42
f 44/160/43 45/159/43 33/158/43 32/157/43
f 45/164/44 46/163/44 34/162/44 33/161/44
f 46/168/45 47/167/45 35/166/45 34/165/45
f 47/172/46 48/171/46 36/170/46 35/169/46
f 48/176/47 49/175/47 37/174/47 36/173/47
f 49/180/48 39/179/48 27/178/48 37/177/48
f 51/184/49 50/183/49 38/182/49 39/181/49
f 50/188/50 52/187/50 40/186/50 38/185/50
f 52/192/51 53/191/51 41/190/51 40/189/51
f 53/196/52 54/195/52 42/194/52 41/193/52
f 54/200/53 55/199/53 43/198/53 42/197/53
f 55/204/54 56/203/54 44/202/54 43/201/54
f 56/208/55 57/207/55 45/206/55 44/205/55
f 57/212/56 58/211/56 46/210/56 45/209/56
f 58/216/57 59/215/57 47/214/57 46/213/57
f 59/220/58 60/219/58 48/218/58 47/217/58
f 60/224/59 61/223/59 49/222/59 48/221/59
f 61/228/60 51/227/60 39/226/60 49/225/60
f 63/232/61 62/231/61 50/230/61 51/229/61
f 62/236/62 64/235/62 52/234/62 50/233/62
f 64/240/63 65/239/63 53/238/63 52/237/63
f 65/244/64 66/243/64 54/242/64 53/241/64
f 66/248/65 67/247/65 55/246/65 54/245/65
f 67/252/66 68/251/66 56/250/66 55/249/66
f 68/256/67 69/255/67 57/254/67 56/253/67
f 69/260/68 70/259/68 58/258/68 57/257/68
f 70/264/69 71/263/69 59/262/69 58/261/69
f 71/268/70 72/267/70 60/266/70 59/265/70
f 72/272/71 73/271/71 61/270/71 60/269/71
f 73/276/72 63/275/72 51/274/72 61/273/72
f 75/280/73 74/279/73 62/278/73 63/277/73
f 74/284/74 76/283/74 64/282/74 62/281/74
f 76/288/75 77/287/75 65/286/75 64/285/75
f 77/292/76 78/291/76 66/290/76 65/289/76
f 78/296/77 79/295/77 67/294/77 66/293/77
f 79/300/78 80/299/78 68/298/78 67/297/78
f 80/304/79 81/303/79 69/302/79 68/301/79
f 81/308/80 82/307/80 70/306/80 69/305/80
f 82/312/81 83/311/81 71/310/81 70/309/81
f 83/316/82 84/315/82 72/314/82 71/313/82
f 84/320/83 85/319/83 73/318/83 72/317/83
f 85/324/84 75/323/84 63/322/84 73/321/84
f 87/328/85 86/327/85 74/326/85 75/325/85
f 86/332/86 88/331/86 76/330/86 74/329/86
f 88/336/87 89/335/87 77/334/87 76/333/87
f 89/340/88 90/339/88 78/338/88 77/337/88
f 90/344/89 91/343/89 79/342/89 78/341/89
f 91/348/90 92/347/90 80/346/90 79/345/90
f 92/352/91 93/351/91 81/350/91 80/349/91
f 93/356/92 94/355/92 82/354/92 81/353/92
f 94/360/93 95/359/93 83/358/93 82/357/93
f 95/364/94 96/363/94 84/362/94 83/361/94
f 96/368/95 97/367/95 85/366/95 84/365/95
f 97/372/96 87/371/96 75/370/96 85/369/96
f 98/375/97 86/374/97 87/373/97
f 98/378/98 88/377/98 86/376/98
f 98/381/99 89/380/99 88/379/99
f 98/384/100 90/383/100 89/382/100
f 98/387/101 91/386/101 90/385/101
f 98/390/102 92/389/102 91/388/102
f 98/393/103 93/392/103 92/391/103
f 98/396/104 94/395/104 93/394/104
f 98/399/105 95/398/105 94/397/105
f 98/402/106 96/401/106 95/400/106
f 98/405/107 97/404/107 96/403/107
f 98/408/108 87/407/108 97/406/108
